<svg version="1.1" xmlns="http://www.w3.org/2000/svg" viewBox="0 0 367.40625 187.67578125" width="734.8125" height="375.3515625">
  <!-- svg-source:excalidraw -->
  
  <defs>
    <style class="style-fonts">
      @font-face {
        font-family: "Virgil";
        src: url("https://excalidraw.com/Virgil.woff2");
      }
      @font-face {
        font-family: "Cascadia";
        src: url("https://excalidraw.com/Cascadia.woff2");
      }
    </style>
  </defs>
  <g stroke-linecap="round" transform="translate(10 10) rotate(0 173.703125 83.837890625)"><path d="M0 0 C0 0, 0 0, 0 0 M0 0 C0 0, 0 0, 0 0 M-1.63 5.29 C2.1 4.33, 1.38 1.84, 6.39 1 M0.33 6.16 C1.44 5.2, 3.29 2.12, 5.49 0.87 M2.81 12.3 C0.72 9.64, 8.68 8.29, 13.01 2.33 M0.58 11.96 C4.61 9.51, 8.03 3.68, 11.14 0.88 M-2.86 16.5 C6 11.51, 4 12.61, 13.56 0.31 M-0.27 19.73 C4.6 14.18, 8.48 11.44, 14.77 0.45 M0.98 22.96 C4.25 18.5, 16.39 6.62, 20.73 1.68 M0.77 25.09 C5.95 18.13, 13.91 11.34, 20.56 -0.98 M2.67 27.88 C7.35 18.36, 18.17 14.67, 25.58 -0.31 M-0.77 30.39 C4.88 21.35, 10.04 15.41, 25.39 1.71 M-0.35 36.14 C6.29 23.08, 18.26 15.03, 31.13 2.85 M-1.38 35.76 C8.22 24.23, 15.62 17.46, 32.67 -0.52 M2.23 44.59 C12.04 29.55, 21.55 16.77, 40.77 2.52 M0.94 43.88 C15.8 24.77, 27.88 9.66, 37.65 -0.06 M0.78 45.08 C16.46 27.07, 35.79 13.03, 44.67 3.69 M-0.78 50.83 C11.78 31.49, 26.53 18.26, 41.07 -0.15 M-0.56 56.15 C16.03 40.33, 25.43 25.72, 47.66 -0.08 M-1.54 55.4 C14.78 37.99, 29.03 22.23, 46.41 -0.2 M4 57.88 C17.09 43.43, 34.35 20.27, 55.55 -3.84 M0.92 61.61 C13.76 46.99, 26.03 29.69, 53.54 0.63 M-0.4 63.51 C9.37 53.88, 27.67 32.51, 55.09 -0.32 M-0.94 68.08 C20.74 44.73, 41.95 19.9, 59.92 2.12 M-2.1 74.59 C22.84 43.74, 53.54 16.93, 64.26 2.89 M0.07 74.8 C15.51 54.11, 31.99 35.74, 62.25 -0.54 M0.25 80.07 C19.75 60.25, 31.98 38.56, 72.22 -1.72 M0.31 79.96 C21.45 52.97, 42.56 29.93, 69.73 1.89 M3.39 83.94 C17.55 63.52, 37.52 36.37, 73.62 1.22 M0.37 83.25 C19.98 60.15, 41.45 35.94, 73.68 1.18 M-0.68 92.14 C21.44 64.2, 41.37 39.38, 80.52 0.89 M0.19 90.46 C29.02 58.85, 58.93 25.65, 80.76 -1.75 M-2.97 100.11 C16.21 77.8, 31.6 56.66, 84.75 -0.85 M-1.81 96.74 C18.41 75.63, 39.8 50.25, 86.67 -0.27 M1.67 99.99 C32.19 64.92, 57.72 28.8, 93.77 1.38 M1.66 103.44 C27.81 72.09, 55.11 36.85, 89.28 0.5 M-2.33 107.7 C22.44 83.71, 51.78 57.07, 93.09 -0.61 M-0.76 108.93 C38.7 67.1, 75.36 27.45, 94.39 0.26 M-1.51 114.58 C30.8 80.34, 60.89 45.56, 98.08 2.29 M2.01 113.89 C30.25 82.49, 60.57 44.99, 100.87 -1.91 M2.49 118.26 C34.02 81.23, 76.02 36.87, 108.39 3.33 M0.59 123.9 C35.05 81.38, 70.75 41.68, 106.37 1.03 M2.63 130.3 C26.65 97.44, 49.61 65.8, 111.84 2.84 M-1.77 126.73 C26.09 99.55, 53.73 66.84, 112.49 -1.37 M1.65 131.27 C37.14 92.65, 77.6 46.2, 118.07 -0.2 M-0.71 135.15 C30.67 102, 60.15 65.31, 117.83 0.25 M-0.79 141.96 C19.5 110.27, 50.34 83.56, 125.77 2.97 M-0.35 139.76 C30.41 105.51, 65.31 69.02, 122.43 1.89 M-2.38 146.91 C32.27 102.66, 74.17 62.68, 125.8 -1.94 M1.77 144.3 C39.04 100.53, 78.16 60.9, 126.27 -1 M1.54 153.25 C36.64 99.6, 78.84 51.9, 131.08 -0.65 M1.72 154.02 C32.18 113.43, 63.57 77.11, 132.33 1.6 M0.45 162.31 C43.06 109.93, 86.55 57.37, 135.85 3.84 M0.97 159.79 C48.44 107.56, 93.27 54.5, 137.6 -0.15 M2.25 162.44 C42.28 115.25, 84.61 75.72, 146.16 -2.56 M-0.21 165.53 C54.43 103.33, 107.56 42.12, 144.86 0.34 M3.7 165.96 C41.28 125.04, 76.97 80.65, 150.21 -1.09 M2.83 170.71 C31.59 133.06, 64.57 91.94, 146.94 1.34 M7.04 165.73 C38.63 127.33, 78.93 87.58, 152.69 -1.47 M6.7 167.66 C56.44 110.02, 107.17 49.16, 154.96 -1.76 M14.52 172.26 C67.3 104.38, 128.15 43.15, 159.71 3.5 M13.12 170.89 C67.21 107.29, 125.5 40.85, 158.88 1.96 M14.22 172.1 C66.95 114.09, 113.37 55.74, 164.57 -2.01 M17.48 170.23 C68.77 112.84, 118.36 53.79, 165.87 -0.98 M20.02 166.67 C63.81 126.89, 101.99 82.32, 167.52 1.61 M22.43 169.39 C72.7 110.29, 124.91 47.74, 167.92 1.05 M26.17 170.43 C76.68 113.06, 131.15 51.92, 175.12 2.17 M29.68 168.37 C71.13 118.49, 113.74 69.63, 176.7 1.42 M30.55 169.51 C69.19 125.2, 105.97 83.62, 178.74 0.31 M33.46 170 C76.22 121.05, 119.76 71.78, 180.86 0.66 M37.45 167.99 C75.11 130.19, 106.95 91.05, 188.3 -2.65 M39.89 169.18 C96.12 105.67, 152.62 39.53, 184.31 0.9 M46.4 167.25 C92.13 118.57, 138.38 61.16, 190.16 -1.36 M43.18 169.78 C81.2 128.75, 115.86 86.71, 191.07 0.38 M48.08 170.92 C83.7 130.73, 122.22 90.16, 194.58 1.36 M48.47 170.44 C105.26 108.25, 159.15 45.72, 195.34 -1.81 M54.39 171.08 C103.7 115, 153.79 57.95, 200.52 -2.06 M54.88 167.65 C94.91 126.51, 135.17 78.42, 200.79 -0.92 M60.03 167.03 C108.51 109.15, 158.91 50.33, 208.74 -1.77 M61.2 169.17 C94.41 126.67, 130.51 82.23, 207.21 1.04 M65.66 172.1 C113.93 113.17, 161.22 55.11, 214.04 -1.54 M66.12 169.53 C118.43 107.32, 170.43 47.31, 212.57 0.07 M73.85 170.52 C101.21 137.68, 128.33 101.5, 218.37 -3.36 M70.43 170.31 C129.15 104.94, 183.67 39.09, 216.84 -1.58 M77.88 172.35 C107.6 127.46, 143.39 89.01, 223.12 2.73 M77.32 169.44 C115.64 127.65, 153.3 82.07, 224.09 -0.94 M78.31 170.39 C117.49 126.63, 156.88 76.85, 228.47 -1 M80.81 167.72 C140.26 99.05, 199.4 32.6, 229.14 0.09 M85.54 167.57 C139.19 108.59, 185.73 53.54, 232.51 -1.6 M86.65 168.42 C125.52 121.94, 169.4 72.94, 233.33 -0.4 M95.12 168.25 C121.39 135.11, 155.97 104.74, 236.81 -1.26 M90.44 170.04 C132.8 124.16, 172.32 77.05, 237.49 1.18 M97.15 171.27 C134.95 117.99, 176.82 73.57, 242.03 2.95 M98.57 169.36 C148.25 116.66, 195.04 64.2, 243.73 1.13 M99.81 168.06 C145.13 121.24, 187.14 69.81, 246.83 1.39 M102.86 167.96 C133.82 130.6, 168.6 90.63, 248.72 1.6 M104.32 170.08 C164.15 105.85, 217.56 43.22, 256.97 -1.67 M108.39 168.39 C160.89 106.13, 217.34 45.47, 255.56 0.59 M114.01 166.48 C150.13 119.26, 188.68 79.74, 260.27 -1.9 M110.92 167.69 C153.15 123.7, 191.75 76.78, 260.25 1.92 M119.53 168.37 C168.12 116.27, 214.14 57.63, 263.92 3.21 M117.72 170.41 C155.45 129.34, 190.3 89.54, 264.26 1.1 M121.97 167.13 C151.32 130.95, 183.29 95.03, 269.46 0.53 M121.8 169.02 C160.51 127.42, 198.64 84.4, 271.31 -1.32 M131.47 171.14 C186.96 109.01, 238.99 41.92, 275.59 0.72 M129.33 170.09 C161.98 128.76, 202.12 85.95, 275.86 -0.1 M132.07 167.88 C180.42 115.11, 226.16 64.1, 280.78 -3.15 M134.09 168.11 C191.46 102.57, 252.12 37.43, 280.55 0.56 M135.98 166.76 C200.36 100.71, 259.85 37.61, 286.01 -3.05 M138.57 167.44 C190.25 111.77, 239.85 54.61, 284.66 0.38 M141.57 168.14 C184.63 121.95, 229.33 81.29, 290.54 3.31 M145.65 169.95 C194.05 112.79, 245.11 57.07, 291.24 -0.8 M153.25 171.72 C202.6 110.12, 253.95 42.74, 294.63 -3.14 M148.79 169.44 C195.15 116.14, 240.18 64, 295.57 0.03 M153.16 166.21 C202.85 115.26, 242.82 63.47, 302.21 -1.04 M154.61 170.21 C205.15 113.13, 252.51 57.29, 302.63 1.83 M162.43 172.14 C200.06 122.76, 238.94 75.97, 309.8 0.83 M159.35 167.76 C197.34 131.4, 230.09 91.46, 308.64 -0.92 M164.64 169.57 C221.03 101.8, 275.94 39.08, 309.21 -2.2 M164.57 170.74 C200.65 131.48, 231.94 92.22, 311.69 -1.36 M173.95 168.47 C201.06 133.16, 236.11 91.84, 317.75 1.25 M170.78 167.94 C211.58 124.85, 247.37 83.35, 317.33 -1.28 M179.23 170.81 C224.96 116.69, 268.44 61.6, 325.86 -2.77 M175.97 167.46 C222.77 119.29, 267.65 67.89, 321.7 -1.15 M184.69 172.12 C237.6 101.2, 291.31 43.45, 327.35 -0.32 M183.02 167.07 C226.03 115.33, 272.35 62.31, 327.44 -0.55 M188.39 171.73 C235.63 109.48, 288.79 52.29, 335.8 2.14 M187.85 169.36 C219.9 127.82, 254.05 87.81, 333.67 1.52 M195.3 167.52 C241.71 112.37, 298.34 51.58, 339.14 -3.42 M193.74 169.26 C235.3 118.07, 275.74 72.44, 338.18 -0.69 M195.87 166.1 C243.44 117.58, 282.95 71.43, 343.57 0.79 M196.08 169.2 C236.12 125.16, 277.86 77.16, 344.59 0.65 M199.75 170.69 C237.72 129.58, 268.21 94.09, 347.45 3.08 M203.49 170.13 C236.84 127.55, 272.44 87.68, 349.47 0.54 M207.43 170.68 C244.23 136.58, 271.84 98.78, 350.9 10.29 M208.89 169.36 C260.37 111.16, 308.52 52.52, 349.5 8.3 M216.54 170.76 C261.17 118.2, 306.31 61.42, 352.5 16.2 M213.97 168.88 C259.86 112.9, 308.99 54.78, 348.04 14 M220.79 166.19 C249 134.18, 281.74 102.23, 348.08 20.46 M217.35 169.86 C262.49 121.35, 308.86 68.01, 348.56 21.06 M221.75 168.08 C272.47 118.38, 312.17 65.45, 352.94 21.63 M221.95 171.01 C255.97 136.22, 288.89 101.43, 350.33 26.84 M227.33 172.26 C271.55 113.26, 315.31 60.54, 352.14 34.17 M229.17 169.65 C273.13 119.39, 314.83 70.54, 347.85 29.68 M233.13 169.36 C270.01 126.76, 309.22 80.5, 348.46 38.58 M235.39 168.51 C276.4 117.65, 322.78 69.71, 348.6 37.74 M240.54 168.66 C265.09 141.56, 281.2 113.03, 345.93 40.91 M241.02 168.99 C273.17 133.94, 303.54 96.37, 349.38 43.95 M244.61 172.98 C271.63 138.47, 299.2 105.56, 345 47.88 M243.66 169.74 C273.06 137.37, 299.95 105.35, 346.83 50.81 M252.39 169.57 C274.86 143.06, 293.19 117.63, 348.29 54.48 M251.84 167.25 C277.51 138.3, 309.47 102.92, 348.39 53.71 M254.81 168.97 C285.64 136.7, 311.99 101.91, 352.41 62.9 M254.13 170.39 C288.14 134.44, 317.76 99.56, 347.54 61.46 M261.11 171.89 C300.23 127.19, 333.01 90.29, 345.72 70.12 M260.9 168.98 C281.05 140.8, 304.52 117.4, 346.79 67.68 M262.63 168.08 C283.9 149.09, 304.61 120.51, 351.49 74.99 M265.47 168.33 C294.84 134.64, 323.54 101.31, 348.2 75.5 M275.27 167.2 C290.9 146.54, 307.22 128.2, 347.02 81.48 M273.81 169.84 C300.11 138.35, 327.5 106.42, 349.8 80.5 M279.29 165.72 C302.64 134.96, 329.91 110.59, 344.73 90.91 M277.73 169.56 C300.45 144.21, 318.84 117.54, 349.99 88.66 M285.75 169.76 C300.63 150.75, 308.95 139.7, 351.3 89.18 M284.55 170.7 C305.08 145.38, 323.64 123.25, 348.02 91.23 M284.32 170 C307.64 144.08, 328.69 123.07, 346.86 101.86 M286.29 170.27 C306.94 148.08, 325.35 126, 350.41 97.54 M293.73 172.53 C302.5 151.94, 315.58 136.79, 346.66 101.77 M293.4 167.55 C309.53 151.7, 323.91 132.39, 350.05 106.31 M301.57 165.72 C305.55 156.52, 315.08 148.33, 344.99 107.97 M299.88 170.77 C307.22 155.77, 319.57 144.34, 349.33 110.19 M306.72 167.13 C324.58 152.18, 337.49 126.84, 344.85 117.24 M305.03 169.55 C314.45 157.68, 325.14 149.17, 347.19 119.11 M307.19 166.36 C326.34 152.3, 336.37 134.22, 345.17 119.32 M310.57 169.56 C318.25 158.27, 326.18 148.05, 349.61 121.05 M310.52 171.91 C325.39 159.69, 329.6 151.63, 347.9 131.99 M314.41 169.01 C323.67 157.49, 336.11 143.84, 350.04 128.89 M321.65 170.1 C327.1 158.11, 332.89 155.47, 351.79 136.69 M319.77 169.28 C329.1 155.15, 339.81 142.25, 350.46 133.71 M321.27 171.88 C331.23 164.39, 341.16 154.66, 348.2 141.4 M324.89 167.4 C332.09 162.47, 338.6 152.74, 350.56 143.33 M333.74 171.78 C333.08 161.17, 345.17 152.86, 346.87 148.27 M328.24 170.72 C336.26 159.7, 345.34 151.25, 348.77 147.67 M333.41 170.73 C343.08 166.55, 342.03 156.02, 351.07 156.74 M334.15 169.35 C339.91 161.34, 345.42 157.38, 350.74 153.5 M343.01 167.77 C342.38 166.36, 349.23 163.23, 346.27 161.58 M341.53 170.09 C342.61 166.84, 344.6 164.48, 348.1 160.77 M346.03 169.91 C347.54 167.82, 348.82 165.52, 348.28 164.68 M346.17 169.35 C346.85 168.38, 348.07 167.01, 348.71 165.33" stroke="#ced4da" stroke-width="0.5" fill="none"></path><path d="M-0.49 -0.47 C126.97 -0.98, 258.66 1.74, 348.06 -2.16 M-0.77 -0.27 C123.97 -1.48, 247.66 -0.09, 347.46 -0.92 M351.1 -2.77 C348.59 45.13, 346.35 81.78, 343.55 165.37 M347.79 -0.54 C350.21 65.9, 346.91 134.67, 345.69 167.31 M347.28 166.03 C217.24 172.99, 87.41 171.05, -0.11 165.7 M346.11 168.45 C270.78 171.82, 191.92 171.72, 1.06 167.25 M-2.37 166.45 C1.5 117.43, 5.53 61.03, 0.1 2.52 M1.17 167.06 C1 125.38, 1.18 78.59, -0.75 -1.48" stroke="#343a40" stroke-width="1" fill="none"></path></g><g stroke-linecap="round"><g transform="translate(142.44106603881642 101.70390933106137) rotate(0 26.89877771118364 -13.688284331061595)"><path d="M0 0 C-4.59 -2.48, -9.17 -4.97, -16.42 -8.89 M0 0 C-5.85 -3.17, -11.71 -6.34, -16.42 -8.89 M-16.42 -8.89 C8.18 -22.58, 32.79 -36.26, 70.22 -57.09 M-16.42 -8.89 C17.87 -27.96, 52.15 -47.04, 70.22 -57.09 M70.22 -57.09 C65.72 -31.09, 61.22 -5.09, 55.2 29.71 M70.22 -57.09 C65.83 -31.7, 61.44 -6.32, 55.2 29.71 M55.2 29.71 C44.92 23.7, 34.63 17.7, 18.3 8.16 M55.2 29.71 C47.52 25.22, 39.83 20.73, 18.3 8.16 M18.3 8.16 C18.2 15.46, 18.11 22.76, 18.02 29.63 M18.3 8.16 C18.22 14.33, 18.14 20.5, 18.02 29.63" stroke="#000" stroke-width="4" fill="none"></path></g></g><mask></mask><g stroke-linecap="round"><g transform="translate(169.48102073911127 97.62716004794902) rotate(0 15.197074400961924 -17.290251328808154)"><path d="M0 0 C7.96 -9.05, 15.91 -18.1, 30.39 -34.58 M0 0 C11.37 -12.93, 22.74 -25.87, 30.39 -34.58" stroke="#3d71b7" stroke-width="4" fill="none"></path></g></g><mask></mask></svg>